<svg xmlns="http://www.w3.org/2000/svg" enable-background="new 0 0 512 512" version="1" viewBox="0 0 512 512"><path fill="#EF4136" d="M11.7,234.6v128c0,31,25.1,56.1,56.1,56.1h376.3c31,0,56.1-25.1,56.1-56.1v-128H11.7z M171.8,307.2H94.7
			c-7,0-12.7-5.7-12.7-12.7c0-7,5.7-12.7,12.7-12.7h77.1c7,0,12.6,5.7,12.6,12.7C184.4,301.5,178.8,307.2,171.8,307.2z M294.5,307.2
			h-77.1c-7,0-12.7-5.7-12.7-12.7c0-7,5.7-12.7,12.7-12.7h77.1c7,0,12.7,5.7,12.7,12.7C307.2,301.5,301.5,307.2,294.5,307.2z
			 M417.3,307.2h-77.1c-7,0-12.6-5.7-12.6-12.7c0-7,5.7-12.7,12.6-12.7h77.1c7,0,12.7,5.7,12.7,12.7
			C430,301.5,424.3,307.2,417.3,307.2z"/><path d="M417.3 299.7c-25 0-50 0-75 0-1.1 0-2.4.1-3.5-.2-4.2-1.2-5.1-6.8-1.5-9.2 2.6-1.8 7.8-.9 10.8-.9 15.7 0 31.4 0 47.1 0 6.6 0 13.2 0 19.8 0 1.7 0 3.4-.2 4.9.7C424.5 292.8 422.3 299.4 417.3 299.7c-9.6.5-9.7 15.5 0 15 16.9-.9 26.9-20.8 14.7-33.9-5.7-6.1-13.1-6.4-20.8-6.4-18.2 0-36.4 0-54.6 0-5.4 0-10.8-.2-16.1 0-14.7.5-25.1 15.4-18.3 29.2 4.4 8.8 13 11.1 22 11.1 7.7 0 15.5 0 23.2 0 16.6 0 33.2 0 49.9 0C427 314.7 427 299.7 417.3 299.7zM294.5 299.7c-25 0-50 0-75 0-1.1 0-2.4.1-3.5-.2-4.2-1.2-5.1-6.8-1.5-9.2 2.6-1.8 7.8-.9 10.8-.9 15.7 0 31.4 0 47.1 0 6.6 0 13.2 0 19.8 0 1.7 0 3.4-.2 4.9.7C301.7 292.8 299.6 299.4 294.5 299.7c-9.6.5-9.7 15.5 0 15 16.9-.9 26.9-20.8 14.7-33.9-5.7-6.1-13.1-6.4-20.8-6.4-18.2 0-36.4 0-54.6 0-5.4 0-10.8-.2-16.1 0-14.7.5-25.1 15.4-18.3 29.2 4.4 8.8 13 11.1 22 11.1 7.7 0 15.5 0 23.2 0 16.6 0 33.2 0 49.9 0C304.2 314.7 304.2 299.7 294.5 299.7zM171.8 299.7c-25 0-50 0-75 0-1.1 0-2.4.1-3.5-.2-4.2-1.2-5.1-6.8-1.5-9.2 2.6-1.8 7.8-.9 10.8-.9 15.7 0 31.4 0 47.1 0 6.6 0 13.2 0 19.8 0 1.7 0 3.4-.2 4.9.7C178.9 292.8 176.8 299.4 171.8 299.7c-9.6.5-9.7 15.5 0 15 16.9-.9 26.9-20.8 14.7-33.9-5.7-6.1-13.1-6.4-20.8-6.4-18.2 0-36.4 0-54.6 0-5.4 0-10.8-.2-16.1 0-14.7.5-25.1 15.4-18.3 29.2 4.4 8.8 13 11.1 22 11.1 7.7 0 15.5 0 23.2 0 16.6 0 33.2 0 49.9 0C181.4 314.7 181.4 299.7 171.8 299.7z"/><path d="M4.2,234.6c0,24.8,0,49.6,0,74.4c0,14.6,0,29.3,0,43.9c0,13.3,0.7,26,6.8,38.3c10.6,21.4,33.1,34.8,56.8,35
				c3.4,0,6.8,0,10.2,0c21.8,0,43.5,0,65.3,0c33.2,0,66.5,0,99.7,0c34.5,0,68.9,0,103.4,0c25.4,0,50.8,0,76.2,0
				c19,0,37.7,1.2,54.7-9.4c19-11.7,30.2-32.5,30.4-54.7c0.1-9.7,0-19.3,0-29c0-30.8,0-61.5,0-92.3c0-2.1,0-4.2,0-6.3
				c0-4.1-3.4-7.5-7.5-7.5c-16.2,0-32.4,0-48.5,0c-38.9,0-77.7,0-116.6,0c-47,0-94,0-141.1,0c-40.7,0-81.4,0-122,0
				c-19.8,0-39.7-0.7-59.5,0c-0.3,0-0.6,0-0.9,0c-9.7,0-9.7,15,0,15c16.2,0,32.4,0,48.5,0c38.9,0,77.7,0,116.6,0c47,0,94,0,141.1,0
				c40.7,0,81.4,0,122,0c13.5,0,27,0,40.5,0c6.2,0,12.8,0.6,19,0c0.3,0,0.6,0,0.9,0c-2.5-2.5-5-5-7.5-7.5c0,24,0,48,0,72
				c0,14.8,0,29.6,0,44.4c0,10.8,0.4,21.4-4.2,31.6c-8,17.6-25.5,28.6-44.7,28.8c-3.9,0-7.8,0-11.8,0c-21.8,0-43.7,0-65.5,0
				c-32.5,0-65.1,0-97.6,0c-33.7,0-67.5,0-101.2,0c-25.5,0-51,0-76.4,0c-15.4,0-32.4,1.9-46.3-5.7c-16.4-8.8-25.8-25.6-25.8-44.1
				c0-10.3,0-20.6,0-30.9c0-30,0-59.9,0-89.9c0-2,0-4.1,0-6.1C19.2,224.9,4.2,224.9,4.2,234.6z"/><path fill="#EF4136" d="M500.3,149.4v17.1H11.7v-17.1c0-31,25.1-56.1,56.1-56.1h376.3C475.1,93.2,500.3,118.4,500.3,149.4z"/><path d="M492.8,149.4c0,5.7,0,11.4,0,17.1c2.5-2.5,5-5,7.5-7.5c-16.2,0-32.4,0-48.5,0c-38.9,0-77.7,0-116.6,0c-47,0-94,0-141.1,0
				c-40.7,0-81.4,0-122,0c-13.5,0-27,0-40.5,0c-6.2,0-12.8-0.6-19,0c-0.3,0-0.6,0-0.9,0c2.5,2.5,5,5,7.5,7.5
				c0-9.5-0.9-19.5,1.4-28.8c3.6-14.3,13.5-26.2,26.8-32.5c9.6-4.6,19.5-4.5,29.8-4.5c30.5,0,61,0,91.5,0c44.9,0,89.9,0,134.8,0
				c37.2,0,74.5,0,111.7,0c8.8,0,17.7,0,26.5,0c19.7,0,37.4,9.5,46.3,27.6C491.2,134.9,492.7,142.1,492.8,149.4
				c0.1,9.6,15.1,9.7,15,0c-0.4-34.9-28.7-63.3-63.6-63.6c-5.5-0.1-11,0-16.6,0c-35.1,0-70.3,0-105.4,0c-46.7,0-93.5,0-140.2,0
				c-33.7,0-67.4,0-101.1,0c-8.5,0-16.9-0.3-25.3,1.2c-16.3,3-30.7,12.9-40.2,26.4C7.1,125.3,4.2,139,4.2,153.2c0,4.4,0,8.8,0,13.3
				c0,4.1,3.4,7.5,7.5,7.5c16.2,0,32.4,0,48.5,0c38.9,0,77.7,0,116.6,0c47,0,94,0,141.1,0c40.7,0,81.4,0,122,0
				c19.8,0,39.7,0.7,59.5,0c0.3,0,0.6,0,0.9,0c4.1,0,7.5-3.4,7.5-7.5c0-5.7,0-11.4,0-17.1C507.8,139.7,492.8,139.7,492.8,149.4z"/><rect width="488.5" height="68.1" x="11.7" y="166.5" fill="#808285"/><path d="M492.8,166.5c0,22.7,0,45.4,0,68.1c2.5-2.5,5-5,7.5-7.5c-16.2,0-32.4,0-48.5,0c-38.9,0-77.7,0-116.6,0
				c-47,0-94,0-141.1,0c-40.7,0-81.4,0-122,0c-13.5,0-27,0-40.5,0c-6.2,0-12.8-0.6-19,0c-0.3,0-0.6,0-0.9,0c2.5,2.5,5,5,7.5,7.5
				c0-22.7,0-45.4,0-68.1c-2.5,2.5-5,5-7.5,7.5c16.2,0,32.4,0,48.5,0c38.9,0,77.7,0,116.6,0c47,0,94,0,141.1,0c40.7,0,81.4,0,122,0
				c19.8,0,39.7,0.7,59.5,0c0.3,0,0.6,0,0.9,0c9.7,0,9.7-15,0-15c-16.2,0-32.4,0-48.5,0c-38.9,0-77.7,0-116.6,0c-47,0-94,0-141.1,0
				c-40.7,0-81.4,0-122,0c-19.8,0-39.7-0.7-59.5,0c-0.3,0-0.6,0-0.9,0c-4.1,0-7.5,3.4-7.5,7.5c0,22.7,0,45.4,0,68.1
				c0,4.1,3.4,7.5,7.5,7.5c16.2,0,32.4,0,48.5,0c38.9,0,77.7,0,116.6,0c47,0,94,0,141.1,0c40.7,0,81.4,0,122,0
				c19.8,0,39.7,0.7,59.5,0c0.3,0,0.6,0,0.9,0c4.1,0,7.5-3.4,7.5-7.5c0-22.7,0-45.4,0-68.1C507.8,156.8,492.8,156.8,492.8,166.5z"/><path fill="#00AEEF" d="M307.2,294.5c0,7-5.7,12.7-12.7,12.7h-77.1c-7,0-12.7-5.7-12.7-12.7c0-7,5.7-12.7,12.7-12.7h77.1
			C301.5,281.9,307.2,287.5,307.2,294.5z"/><path d="M299.7,294.5c-0.3,5.6-5.6,5.2-9.6,5.2c-6.6,0-13.3,0-19.9,0c-15.4,0-30.9,0-46.3,0c-3.3,0-8.5,0.9-10.6-2.3
				c-2.5-3.6,0.4-7.7,4.3-8c1-0.1,2.1,0,3.1,0c14.5,0,28.9,0,43.4,0c8,0,16,0,24,0C292.3,289.4,299.4,288.2,299.7,294.5
				c0.5,9.6,15.5,9.7,15,0c-0.7-12.2-9.8-20.1-21.8-20.2c-6.8-0.1-13.6,0-20.5,0c-17.4,0-34.7,0-52.1,0c-9.7,0-19,4.1-22.1,14.2
				c-4.1,13.5,6.4,25.8,19.8,26.1c15.7,0.4,31.6,0,47.3,0c8.7,0,17.4,0,26.1,0c2.6,0,5.2,0,7.8-0.6c9.3-2.2,14.9-10.4,15.4-19.6
				C315.2,284.9,300.2,284.9,299.7,294.5z"/><g><path fill="#00AEEF" d="M430,294.5c0,7-5.7,12.7-12.7,12.7h-77.1c-7,0-12.6-5.7-12.6-12.7c0-7,5.7-12.7,12.6-12.7h77.1
			C424.3,281.9,430,287.5,430,294.5z"/><path d="M422.5,294.5c-0.3,5.6-5.6,5.2-9.6,5.2c-6.6,0-13.3,0-19.9,0c-15.4,0-30.9,0-46.3,0c-3.3,0-8.5,0.9-10.6-2.3
				c-2.5-3.6,0.4-7.7,4.3-8c1-0.1,2.1,0,3.1,0c14.5,0,28.9,0,43.4,0c8,0,16,0,24,0C415,289.4,422.1,288.2,422.5,294.5
				c0.5,9.6,15.5,9.7,15,0c-0.7-12.2-9.8-20.1-21.8-20.2c-6.8-0.1-13.6,0-20.5,0c-17.4,0-34.7,0-52.1,0c-9.7,0-19,4.1-22.1,14.2
				c-4.1,13.5,6.4,25.8,19.8,26.1c15.7,0.4,31.6,0,47.3,0c8.7,0,17.4,0,26.1,0c2.6,0,5.2,0,7.8-0.6c9.3-2.2,15-10.4,15.5-19.6
				C438,284.9,423,284.9,422.5,294.5z"/></g><g><path fill="#00AEEF" d="M184.4,294.5c0,7-5.7,12.7-12.6,12.7H94.7c-7,0-12.7-5.7-12.7-12.7c0-7,5.7-12.7,12.7-12.7h77.1
			C178.8,281.9,184.4,287.5,184.4,294.5z"/><path d="M176.9,294.5c-0.3,5.6-5.6,5.2-9.6,5.2c-6.6,0-13.3,0-19.9,0c-15.4,0-30.9,0-46.3,0c-3.3,0-8.5,0.9-10.7-2.3
				c-2.5-3.6,0.4-7.7,4.3-8c1-0.1,2.1,0,3.1,0c14.5,0,28.9,0,43.4,0c8,0,16,0,24,0C169.5,289.4,176.6,288.2,176.9,294.5
				c0.5,9.6,15.5,9.7,15,0c-0.7-12.2-9.8-20.1-21.8-20.2c-6.8-0.1-13.6,0-20.5,0c-17.4,0-34.7,0-52.1,0c-9.7,0-19.1,4.1-22.1,14.2
				c-4.1,13.5,6.4,25.8,19.8,26.1c15.7,0.4,31.6,0,47.3,0c8.7,0,17.4,0,26.1,0c2.6,0,5.2,0,7.8-0.6c9.3-2.2,14.9-10.4,15.4-19.6
				C192.4,284.9,177.4,284.9,176.9,294.5z"/></g></svg>