<svg xmlns="http://www.w3.org/2000/svg" viewBox="0 0 47.5 47.5"><defs><clipPath id="a"><path d="M0 38h38V0H0v38Z"/></clipPath></defs><g clip-path="url(#a)" transform="matrix(1.25 0 0 -1.25 0 47.5)"><path fill="#9a4e1c" d="M13 31a2 2 0 0 0 2 2h8a2 2 0 0 0 2-2v-2H13v2zm20-2h-6v4a4 4 0 0 1-4 4h-8a4 4 0 0 1-4-4v-4H5a4 4 0 0 1-4-4V5a4 4 0 0 1 4-4h28a4 4 0 0 1 4 4v20a4 4 0 0 1-4 4"/><path fill="#662113" d="M37 17a4 4 0 0 0-4-4H5a4 4 0 0 0-4 4v8a4 4 0 0 0 4 4h28a4 4 0 0 0 4-4v-8Z"/><path fill="#9a4e1c" d="M37 19a4 4 0 0 0-4-4H5a4 4 0 0 0-4 4v6a4 4 0 0 0 4 4h28a4 4 0 0 0 4-4v-6Z"/><path fill="#ccd6dd" d="M23 19a2 2 0 0 0-2-2h-4a2 2 0 0 0 0 4h4a2 2 0 0 0 2-2"/></g></svg>