<svg xmlns="http://www.w3.org/2000/svg" data-name="Layer 1" viewBox="0 0 32 32"><rect width="31" height="22" x=".5" y="7.5" fill="#f7991d" rx="2" ry="2"/><path fill="#be6428" d="M12.5,23.5h-7a2,2,0,0,1-2-2v2a2,2,0,0,0,2,2h7a2,2,0,0,0,2-2v-2A2,2,0,0,1,12.5,23.5Z"/><path fill="#e37626" d="M3.5,15.5h11a0,0,0,0,1,0,0v7a2,2,0,0,1-2,2h-7a2,2,0,0,1-2-2v-7A0,0,0,0,1,3.5,15.5Z"/><path fill="#be6428" d="M26.5,23.5h-7a2,2,0,0,1-2-2v2a2,2,0,0,0,2,2h7a2,2,0,0,0,2-2v-2A2,2,0,0,1,26.5,23.5Z"/><path fill="#e37626" d="M17.5,15.5h11a0,0,0,0,1,0,0v7a2,2,0,0,1-2,2h-7a2,2,0,0,1-2-2v-7A0,0,0,0,1,17.5,15.5Z"/><path fill="#f7991d" d="M21.5,7.5v-2a1,1,0,0,0-1-1h-9a1,1,0,0,0-1,1v2h-2v-2a3,3,0,0,1,3-3h9a3,3,0,0,1,3,3v2Z"/><rect width="2" height="1" x="8.5" y="6.5" fill="#be6428"/><rect width="2" height="1" x="21.5" y="6.5" fill="#be6428"/><path fill="#f7991d" d="M2.5,7.5h27a2,2,0,0,1,2,2v3a3,3,0,0,1-3,3H3.5a3,3,0,0,1-3-3v-3a2,2,0,0,1,2-2Z"/><path fill="#f7991d" d="M2.5,7.5h27a2,2,0,0,1,2,2v3a3,3,0,0,1-3,3H3.5a3,3,0,0,1-3-3v-3a2,2,0,0,1,2-2Z"/><path fill="#f7991d" d="M31.5,10.5v3a2.996,2.996,0,0,1-3,3H3.5a2.996,2.996,0,0,1-3-3v-3a2.00587,2.00587,0,0,1,2-2h27A2.00587,2.00587,0,0,1,31.5,10.5Z"/><path fill="#be6428" d="M31.5,12.5v1a2.996,2.996,0,0,1-3,3H3.5a2.996,2.996,0,0,1-3-3v-1a2.996,2.996,0,0,0,3,3h25A2.996,2.996,0,0,0,31.5,12.5Z"/><rect width="1" height="9" x="10.5" y="7.5" fill="#be6428"/><path fill="#faa827" d="M9,27.5H9a3.36851,3.36851,0,0,1-1.5-2.80277V7.5h3V24.69723A3.36851,3.36851,0,0,1,9,27.5Z"/><rect width="1" height="9" x="24.5" y="7.5" fill="#be6428"/><path fill="#faa827" d="M23,27.5h0a3.36851,3.36851,0,0,1-1.5-2.80277V7.5h3V24.69723A3.36851,3.36851,0,0,1,23,27.5Z"/><path fill="#be6428" d="M23,27.5a3.36852,3.36852,0,0,1-1.5-2.8028v1A3.36852,3.36852,0,0,0,23,28.5a3.36852,3.36852,0,0,0,1.5-2.8028v-1A3.36852,3.36852,0,0,1,23,27.5Z"/><path fill="#9a5023" d="M10.5,21.5h-3a1,1,0,0,1-1-1v1a1,1,0,0,0,1,1h3a1,1,0,0,0,1-1v-1A1,1,0,0,1,10.5,21.5Z"/><path fill="#be6428" d="M9,27.5a3.36852,3.36852,0,0,1-1.5-2.8028v1A3.36852,3.36852,0,0,0,9,28.5a3.36852,3.36852,0,0,0,1.5-2.8028v-1A3.36852,3.36852,0,0,1,9,27.5Z"/><rect width="5" height="3" x="20.5" y="18.5" fill="#be6428" rx="1" ry="1"/><path fill="#9a5023" d="M24.5,21.5h-3a1,1,0,0,1-1-1v1a1,1,0,0,0,1,1h3a1,1,0,0,0,1-1v-1A1,1,0,0,1,24.5,21.5Z"/><rect width="5" height="3" x="6.5" y="18.5" fill="#be6428" rx="1" ry="1"/></svg>