<svg xmlns="http://www.w3.org/2000/svg" data-name="Layer 1" viewBox="0 0 512 512"><path d="M339.5 321.5V288a50.018 50.018 0 0 1 50-50h56.6V171H79.6a59.707 59.707 0 0 1-40-15.3V401.5a39.989 39.989 0 0 0 40 40H446.7v-70H389.6A50.1 50.1 0 0 1 339.5 321.5zM79.6 151H395.4V85.5a14.98 14.98 0 0 0-15-15H79.6a39.989 39.989 0 0 0-40 40v.5A39.989 39.989 0 0 0 79.6 151zm10-50.2H345.4a10 10 0 0 1 0 20H89.6a10 10 0 0 1 0-20z"/><path d="M459.2,258a9.86,9.86,0,0,1-6.2,0H389.5a30.088,30.088,0,0,0-30,30v33.6a30.088,30.088,0,0,0,30,30h92.9V258Zm-49.7,63.5a10,10,0,0,1-20,0V288a10,10,0,0,1,20,0Z"/></svg>