<svg xmlns="http://www.w3.org/2000/svg" width="64" height="64" viewBox="0 0 64 64"><path fill="#d2e5ea" d="M56.584 47.58l-.746-5.163A8 8 0 0 0 47.2 37.285L35.319 39a8 8 0 0 0-6.773 9.062l.747 5.164a8 8 0 0 0 8.642 5.131l11.876-1.717A8 8 0 0 0 56.584 47.58zM32.681 31.59l2.436-8.6a9.2 9.2 0 0 0-6.31-6.225L15.5 13a9.178 9.178 0 0 0-6.869.752L5.742 23.956a8 8 0 0 0 5.515 9.878L22.8 37.1a7.967 7.967 0 0 0 4.666-.091z"/><path fill="none" stroke="#000" stroke-linejoin="round" stroke-width="2" d="M27.469,37.014A7.959,7.959,0,0,1,22.8,37.1L11.257,33.834a8,8,0,0,1-5.515-9.878L9.013,12.41A8,8,0,0,1,18.891,6.9l11.546,3.271a8,8,0,0,1,5.516,9.878L32.681,31.59"/><circle cx="18.028" cy="16.952" r="3.354" fill="#ff6865" stroke="#000" stroke-linejoin="round" stroke-width="2"/><circle cx="23.666" cy="27.048" r="3.354" fill="#ff6865" stroke="#000" stroke-linejoin="round" stroke-width="2"/><rect width="28" height="28" x="27.87" y="29.646" fill="none" stroke="#000" stroke-linejoin="round" stroke-width="2" rx="8" transform="rotate(-8.228 41.867 43.644)"/><circle cx="36.011" cy="44.493" r="3.354" fill="#ff6865" stroke="#000" stroke-linejoin="round" stroke-width="2"/><circle cx="34.898" cy="36.796" r="3.354" fill="#ff6865" stroke="#000" stroke-linejoin="round" stroke-width="2"/><circle cx="37.124" cy="52.19" r="3.354" fill="#ff6865" stroke="#000" stroke-linejoin="round" stroke-width="2"/><circle cx="47.728" cy="42.799" r="3.354" fill="#ff6865" stroke="#000" stroke-linejoin="round" stroke-width="2"/><circle cx="46.615" cy="35.101" r="3.354" fill="#ff6865" stroke="#000" stroke-linejoin="round" stroke-width="2"/><circle cx="48.841" cy="50.496" r="3.354" fill="#ff6865" stroke="#000" stroke-linejoin="round" stroke-width="2"/></svg>