<svg xmlns="http://www.w3.org/2000/svg" viewBox="0 0 64 64"><g data-name="Pie Chart"><path fill="#f4b393" d="M29,2A27.0308,27.0308,0,0,0,2,29a1,1,0,0,0,1,1H29a1,1,0,0,0,1-1V3A1,1,0,0,0,29,2Z"/><path fill="#7a28cb" d="M29.8857,34.5361A.9993.9993,0,0,0,29,34H3a1,1,0,0,0-1,1A27.0269,27.0269,0,0,0,13.6328,57.1958a1.0013,1.0013,0,0,0,.57.1782,1.0015,1.0015,0,0,0,.8223-.4306L29.8223,35.5693A1,1,0,0,0,29.8857,34.5361Z"/><path fill="#fc60a8" d="M35,8a1,1,0,0,0-1,1V34.6875L19.38,55.8047a1,1,0,0,0,.2524,1.3911A26.9985,26.9985,0,1,0,35,8Z"/></g></svg>