<svg xmlns="http://www.w3.org/2000/svg" enable-background="new 0 0 32 32" viewBox="0 0 32 32"><path d="M30.84998,14.76001L16.83002,5.10999C16.37,4.78998,15.77002,4.75,15.28003,5.01001c-0.49005,0.25995-0.80005,0.76996-0.80005,1.32996v6.77002l-11.63-8C2.39001,4.78998,1.78998,4.75,1.29999,5.01001C0.81,5.26996,0.5,5.77997,0.5,6.33997v19.32001c0,0.56,0.31,1.07001,0.79999,1.33002C1.52002,27.09998,1.76001,27.15997,2,27.15997c0.29999,0,0.59998-0.08997,0.84998-0.26996l11.63-8v6.76996c0,0.56,0.31,1.07001,0.80005,1.33002c0.21997,0.10999,0.45996,0.16998,0.69995,0.16998c0.29004,0,0.59003-0.08997,0.85004-0.26996l14.01996-9.65002C31.26001,16.95996,31.5,16.48999,31.5,16S31.26001,15.03998,30.84998,14.76001z"/></svg>