<svg xmlns="http://www.w3.org/2000/svg" viewBox="0 0 32 32"><g data-name="Layer 2"><path d="M27.57,23.49a8.2,8.2,0,0,0,3.29-6.35c0-3.6-2.8-6.92-7.15-8.49A15.12,15.12,0,0,0,14,5.39a16.74,16.74,0,0,0-5.79,1,7.16,7.16,0,0,0-3-2.66A1.24,1.24,0,0,0,3.89,4c-.68.68-.35,1.71.26,3.57l.3.93a8.15,8.15,0,0,0-3.3,6.35c0,3.61,2.81,6.92,7.15,8.49A15.1,15.1,0,0,0,18,26.62a16.79,16.79,0,0,0,5.79-1,7.17,7.17,0,0,0,3,2.65,1.49,1.49,0,0,0,.47.08,1.2,1.2,0,0,0,.84-.34c.68-.67.35-1.71-.25-3.59ZM3.14,14.86a6.43,6.43,0,0,1,3-5.15l.58-.41-.19-.68C6.4,8.05,6.21,7.49,6,7L6,6.79A10.07,10.07,0,0,1,7,8.14l.45.76.81-.35A14.46,14.46,0,0,1,14,7.39a13,13,0,0,1,8.55,2.89,6.23,6.23,0,0,1,2.31,4.58C24.86,19,20,22.34,14,22.34c-.44,0-.88,0-1.32-.06a14.31,14.31,0,0,1-3.57-.76h0C5.48,20.26,3.14,17.64,3.14,14.86Z"/><path d="M8.26 15.45H19.72a.64.64 0 1 0 0-1.27H8.26a.64.64 0 1 0 0 1.27zM11.44 13.1h5.09a.64.64 0 0 0 0-1.27H11.44a.64.64 0 0 0 0 1.27zM16.53 16.52H11.44a.64.64 0 0 0 0 1.27h5.09a.64.64 0 1 0 0-1.27z"/></g></svg>